<svg xmlns="http://www.w3.org/2000/svg" viewBox="0 0 64 64"><path d="M50,31V22.86A4,4,0,1,0,45.14,18H33V12.26C33,8.19,26.85,5,19,5S5,8.19,5,12.26v25c0,3.9,5.64,7,13,7.23v4.61A4,4,0,1,0,22.86,54H39c.3,2.87,4.48,5,10,5,5.7,0,10-2.29,10-5.33V36.33C59,33.47,55.2,31.28,50,31Zm7,16.86a1.16,1.16,0,0,1,0,.27s0,.08,0,.12a1.47,1.47,0,0,1-.06.15l-.08.15-.08.12-.12.16-.11.12-.14.15-.17.15-.13.11a8,8,0,0,1-2.46,1.19l-.05,0-.59.17-.11,0-.58.13-.2,0-.54.09-.34,0-.45.05-.52,0-.31,0-.87,0-.87,0-.31,0-.52,0-.45-.05-.34,0L46,50.95l-.2,0-.59-.13-.11,0-.6-.17h0A8,8,0,0,1,42,49.39l-.13-.11-.17-.15L41.53,49l-.1-.12-.12-.16-.08-.12-.08-.15a1.49,1.49,0,0,1-.06-.15s0-.08,0-.12a1.16,1.16,0,0,1,0-.27V45.38a14.21,14.21,0,0,0,8,2.06,14.21,14.21,0,0,0,8-2.06Zm0-8.29v2.51a1.16,1.16,0,0,1,0,.27s0,.08,0,.12a1.46,1.46,0,0,1-.06.15l-.08.15-.08.12-.12.16-.11.12-.14.15-.17.15-.13.11a8,8,0,0,1-2.46,1.19l-.05,0-.59.17-.11,0-.58.13-.2,0-.54.09-.34,0-.45.05-.52,0-.31,0-.87,0-.87,0-.31,0-.52,0-.45-.05-.34,0L46,45.17l-.2,0L45.18,45l-.11,0-.6-.17h0A8,8,0,0,1,42,43.61l-.13-.11-.17-.15-.15-.15-.1-.12-.12-.16-.08-.12-.08-.15a1.44,1.44,0,0,1-.06-.15s0-.08,0-.12a1.16,1.16,0,0,1,0-.27V39.6l.08,0a8.08,8.08,0,0,0,.74.46A15.74,15.74,0,0,0,49,41.67a15.74,15.74,0,0,0,7.18-1.56,8.06,8.06,0,0,0,.74-.46Zm0-3.27c0,.67-.64,1.4-1.76,2A13.71,13.71,0,0,1,49,39.67a13.71,13.71,0,0,1-6.24-1.32c-1.12-.6-1.76-1.34-1.76-2C41,34.76,44.42,33,49,33S57,34.76,57,36.33ZM49,17a2,2,0,1,1-2,2A2,2,0,0,1,49,17Zm-3.86,3A4,4,0,0,0,48,22.86V31c-5.2.25-9,2.45-9,5.31V52H22.86A4,4,0,0,0,20,49.14V44.53c7.36-.26,13-3.34,13-7.23V20ZM26.78,32.89l-.8.29-.27.08-.69.2-.58.14-.47.11-1,.18-.15,0a25.48,25.48,0,0,1-7.67,0l-.15,0-1-.18-.47-.11L13,33.46l-.69-.2L12,33.17l-.81-.29-.06,0c-2.32-.92-3.8-2.19-4.1-3.44h0A2,2,0,0,1,7,28.95V24.42c.11.09.24.18.36.27h0a10.55,10.55,0,0,0,1.47,1,15.39,15.39,0,0,0,2.25,1l.86.27.25.08a25.21,25.21,0,0,0,6.81.89A25.21,25.21,0,0,0,25.81,27L26,26.9l.88-.28a15.39,15.39,0,0,0,2.25-1A10.29,10.29,0,0,0,31,24.42v4.53a2,2,0,0,1-.06.47h0c-.3,1.25-1.78,2.52-4.1,3.44ZM7.64,16.56l.26.19c.29.2.6.38.93.56A22.3,22.3,0,0,0,19,19.52a22.3,22.3,0,0,0,10.17-2.21c.33-.18.64-.37.93-.56l.27-.19c.19-.14.37-.27.54-.41l.09-.07V20.6a2,2,0,0,1-.06.47h0c-.3,1.25-1.78,2.52-4.1,3.44l-.06,0-.8.29-.27.08-.69.2-.58.14-.47.11-1,.18-.15,0a25.48,25.48,0,0,1-7.67,0l-.15,0-1-.18-.47-.11L13,25.11l-.69-.2L12,24.83l-.81-.29-.06,0c-2.32-.92-3.8-2.19-4.1-3.44h0A2,2,0,0,1,7,20.6V16.07l.09.07C7.26,16.28,7.45,16.42,7.64,16.56ZM19,7c7.07,0,12,2.77,12,5.26,0,1.16-1,2.33-2.78,3.29a20.27,20.27,0,0,1-9.22,2,20.27,20.27,0,0,1-9.22-2C8,14.58,7,13.41,7,12.26,7,9.77,11.93,7,19,7ZM7,37.3V32.76c.11.09.24.18.36.27h0a10.55,10.55,0,0,0,1.47,1,15.39,15.39,0,0,0,2.25,1l.86.27.25.08a25.21,25.21,0,0,0,6.81.89,25.21,25.21,0,0,0,6.81-.89l.23-.07.88-.28a15.39,15.39,0,0,0,2.25-1A10.29,10.29,0,0,0,31,32.76V37.3c0,2.49-4.93,5.26-12,5.26S7,39.78,7,37.3ZM19,55a2,2,0,1,1,2-2A2,2,0,0,1,19,55Zm30,2c-4.58,0-8-1.76-8-3.33V51.16a14.21,14.21,0,0,0,8,2.06,14.21,14.21,0,0,0,8-2.06v2.51C57,55.24,53.58,57,49,57Z" data-name="database system"/></svg>