<svg xmlns="http://www.w3.org/2000/svg" enable-background="new 0 0 64 64" viewBox="0 0 64 64"><path fill="#2a2f63" d="M56.97,55.87h-1.98V29.85c0-1.83-1.49-3.31-3.31-3.31H12.32c-1.82,0-3.31,1.48-3.31,3.31v26.01H7.03
		c-0.53,0-0.97,0.44-0.97,0.97c0,3.72,3.02,6.74,6.74,6.74h38.4c3.72,0,6.74-3.02,6.74-6.74C57.94,56.31,57.5,55.87,56.97,55.87z
		 M10.95,29.85c0-0.76,0.62-1.37,1.37-1.37h39.36c0.75,0,1.37,0.61,1.37,1.37v26.01h-42.1V29.85z M51.2,61.63H12.8
		c-2.31,0-4.25-1.65-4.7-3.83h47.8C55.45,59.99,53.52,61.63,51.2,61.63z"/><path fill="#ffdb7c" d="M55.9 57.81c-.45 2.18-2.38 3.83-4.7 3.83H12.8c-2.31 0-4.25-1.65-4.7-3.83H55.9zM51.68 28.49H12.32c-.75 0-1.37.61-1.37 1.37v26.01h42.1V29.85C53.05 29.09 52.43 28.49 51.68 28.49zM50.85 53.08c0 .54-.43.97-.97.97H14.12c-.54 0-.97-.43-.97-.97V31.26c0-.54.43-.97.97-.97h35.76c.54 0 .97.43.97.97V53.08z"/><path fill="#2a2f63" d="M49.88,30.3H14.12c-0.54,0-0.97,0.43-0.97,0.97v21.82c0,0.54,0.43,0.97,0.97,0.97h35.76
		c0.54,0,0.97-0.43,0.97-0.97V31.26C50.85,30.73,50.42,30.3,49.88,30.3z M48.91,52.12H15.09V32.22h33.82V52.12z"/><rect width="33.82" height="19.89" x="15.09" y="32.22" fill="#d6e9f2"/><path fill="#2a2f63" d="M20.74,10.13c0,0-0.01,0-0.01-0.01c-0.01-0.04-0.04-0.07-0.06-0.1c-0.03-0.07-0.07-0.13-0.12-0.18
		c-0.03-0.04-0.06-0.06-0.1-0.09c-0.05-0.05-0.11-0.09-0.17-0.12c-0.04-0.02-0.07-0.04-0.11-0.06c-0.1-0.03-0.2-0.05-0.31-0.06H0.98
		c-0.01,0-0.01,0-0.01,0H0.96c-0.12,0-0.23,0.03-0.33,0.07C0.6,9.59,0.57,9.6,0.53,9.61C0.46,9.65,0.4,9.69,0.34,9.76
		C0.31,9.77,0.28,9.8,0.26,9.82C0.2,9.9,0.15,9.97,0.11,10.05c-0.01,0.02-0.03,0.04-0.04,0.06c0,0.01,0,0.02-0.01,0.02
		C0.02,10.23,0.01,10.35,0,10.45c0,0.01,0,0.01,0,0.02V21.3c0,0.04,0.02,0.07,0.02,0.11c0.01,0.08,0.02,0.15,0.05,0.22
		c0.02,0.06,0.05,0.11,0.08,0.16c0.03,0.04,0.04,0.09,0.08,0.13c0.01,0.01,0.02,0.02,0.03,0.03c0.06,0.07,0.14,0.12,0.22,0.17
		c0.04,0.02,0.06,0.05,0.1,0.06c0.11,0.05,0.22,0.07,0.35,0.08c0.01,0,0.02,0.01,0.04,0.01h18.86c0.02,0,0.03-0.01,0.04-0.01
		c0.07,0,0.14-0.02,0.2-0.04s0.12-0.02,0.17-0.05c0.05-0.02,0.09-0.06,0.13-0.09c0.07-0.04,0.13-0.08,0.18-0.14
		c0,0,0.02-0.01,0.02-0.02c0.03-0.03,0.04-0.07,0.06-0.1c0.04-0.07,0.08-0.13,0.11-0.2c0.02-0.06,0.02-0.11,0.03-0.17
		c0.01-0.05,0.03-0.1,0.03-0.15V10.44C20.79,10.34,20.78,10.23,20.74,10.13z M17.28,11.44l-4.09,3.63H7.62l-4.1-3.63H17.28z
		 M1.94,12.63l3.82,3.39l-3.82,3.2V12.63z M3.64,20.33l3.96-3.31h5.61l3.95,3.31H3.64z M18.86,19.22l-3.82-3.2l3.82-3.39V19.22z"/><polygon fill="#ffdb7c" points="17.28 11.44 13.19 15.07 7.62 15.07 3.52 11.44"/><polygon fill="#ebc15c" points="5.76 16.01 1.94 19.22 1.94 12.63"/><polygon fill="#ffdb7c" points="17.16 20.33 3.64 20.33 7.6 17.01 13.21 17.01"/><polygon fill="#ebc15c" points="18.86 12.63 18.86 19.22 15.04 16.01"/><path fill="#2a2f63" d="M40.44,0.43H28.68c-0.01,0-0.03,0.01-0.05,0.01c-0.1,0.01-0.2,0.03-0.3,0.07c-0.03,0.01-0.06,0.02-0.09,0.04
		c-0.11,0.06-0.21,0.13-0.29,0.22l-4.42,5.2c-0.07,0.08-0.12,0.17-0.16,0.27c-0.01,0.03-0.02,0.06-0.02,0.09
		c-0.02,0.07-0.04,0.14-0.04,0.21c0,0.02-0.01,0.04-0.01,0.06v14.7c0,0.53,0.43,0.97,0.97,0.97h16.17c0.53,0,0.97-0.44,0.97-0.97
		V1.39C41.41,0.87,40.97,0.43,40.44,0.43z M26.75,5.16l0.96-1.13v1.59h-1.34L26.75,5.16z M39.47,20.33H25.24V7.57h3.44
		c0.54,0,0.97-0.44,0.97-0.97V2.37h9.82V20.33z"/><polygon fill="#d5d6d5" points="27.71 4.03 27.71 5.63 26.37 5.63 26.75 5.16"/><path fill="#edeced" d="M29.65,2.37v4.23c0,0.53-0.43,0.97-0.97,0.97h-3.44v12.76h14.23V2.37H29.65z M37.42,19.5H27.28
		c-0.54,0-0.97-0.43-0.97-0.97c0-0.53,0.43-0.96,0.97-0.96h10.14c0.54,0,0.97,0.43,0.97,0.96C38.39,19.08,37.96,19.5,37.42,19.5z
		 M37.42,16.33H27.28c-0.54,0-0.97-0.43-0.97-0.97c0-0.53,0.43-0.97,0.97-0.97h10.14c0.54,0,0.97,0.44,0.97,0.97
		C38.39,15.9,37.96,16.33,37.42,16.33z M37.42,13.16H27.28c-0.54,0-0.97-0.44-0.97-0.97c0-0.54,0.43-0.97,0.97-0.97h10.14
		c0.54,0,0.97,0.43,0.97,0.97C38.39,12.73,37.96,13.16,37.42,13.16z M37.42,9.99H27.28c-0.54,0-0.97-0.44-0.97-0.97
		c0-0.54,0.43-0.97,0.97-0.97h10.14c0.54,0,0.97,0.43,0.97,0.97C38.39,9.56,37.96,9.99,37.42,9.99z"/><path fill="#2a2f63" d="M38.39 9.02c0 .53-.43.97-.97.97H27.28c-.54 0-.97-.44-.97-.97 0-.54.43-.97.97-.97h10.14C37.96 8.06 38.39 8.48 38.39 9.02zM38.39 12.19c0 .53-.43.97-.97.97H27.28c-.54 0-.97-.44-.97-.97 0-.54.43-.97.97-.97h10.14C37.96 11.23 38.39 11.65 38.39 12.19zM38.39 15.36c0 .54-.43.97-.97.97H27.28c-.54 0-.97-.43-.97-.97 0-.53.43-.97.97-.97h10.14C37.96 14.4 38.39 14.84 38.39 15.36zM38.39 18.53c0 .54-.43.97-.97.97H27.28c-.54 0-.97-.43-.97-.97 0-.53.43-.96.97-.96h10.14C37.96 17.58 38.39 18 38.39 18.53zM63.03 6.53H45.21c-.54 0-.97.43-.97.97v13.8c0 .53.43.97.97.97h17.82c.14 0 .28-.04.4-.09.03-.01.05-.04.08-.05.09-.06.17-.12.24-.2.01-.01.03-.01.04-.02.02-.04.03-.08.05-.11.04-.06.07-.12.1-.18.02-.07.03-.13.04-.2 0-.04.02-.08.02-.12V7.49C64 6.95 63.57 6.53 63.03 6.53zM46.18 20.33v-4.13c5.88.23 10.79 2.48 13.62 4.13H46.18zM62.06 19.42c-.96-.62-2.34-1.44-4.05-2.23 1.37-.73 3.03-.95 4.05-1.01V19.42zM62.06 14.23c-1.48.07-4.25.44-6.18 2.04-2.71-1.04-6.01-1.89-9.7-2.02V8.47h15.88V14.23z"/><path fill="#f16e61" d="M62.06 16.17v3.24c-.96-.62-2.34-1.44-4.05-2.23C59.38 16.45 61.04 16.24 62.06 16.17zM59.8 20.33H46.18v-4.13C52.06 16.42 56.97 18.67 59.8 20.33z"/><path fill="#d6e9f2" d="M46.18,8.47v5.79c3.69,0.13,6.99,0.98,9.7,2.02c1.93-1.6,4.7-1.97,6.18-2.04V8.47H46.18z M55.17,13.65
		c-1.24,0-2.25-1.01-2.25-2.24c0-1.24,1.01-2.25,2.25-2.25c1.24,0,2.24,1.01,2.24,2.25C57.41,12.65,56.41,13.65,55.17,13.65z"/><path fill="#2a2f63" d="M55.17,9.16c-1.24,0-2.25,1.01-2.25,2.25c0,1.23,1.01,2.24,2.25,2.24c1.24,0,2.24-1.01,2.24-2.24
		C57.41,10.18,56.41,9.16,55.17,9.16z M55.17,11.72c-0.17,0-0.31-0.14-0.31-0.3c0-0.17,0.14-0.31,0.31-0.31
		c0.17,0,0.3,0.14,0.3,0.31C55.47,11.57,55.34,11.72,55.17,11.72z"/></svg>