<svg xmlns="http://www.w3.org/2000/svg" data-name="Layer 1" viewBox="0 0 512 512"><g data-name="&lt;Group&gt;"><g data-name=" Group "><g data-name="&lt;Group&gt;"><g data-name="&lt;Group&gt;"><path fill="#00acea" d="M495.47,318.27v43.09a18.586,18.586,0,0,1-18.59,18.59H62.6a18.586,18.586,0,0,1-18.59-18.59V318.27Z" data-name="&lt;Group&gt;"/><path fill="#00efd1" d="M246.98,115.76H44.01V83.43A18.6,18.6,0,0,1,62.6,64.83H476.88a18.6,18.6,0,0,1,18.59,18.6V318.27H44.01V278.24H246.98V115.76Z" data-name="&lt;Group&gt;"/><polygon fill="#d4e1f4" points="330.1 379.95 348.7 447.17 189.78 447.17 208.37 379.95 330.1 379.95" data-name="&lt;Group&gt;"/><path fill="#36d4ff" d="M246.98,187.96v90.28H38.74a22.205,22.205,0,0,1-22.21-22.21V187.96H246.98ZM91.48,238.03A15.111,15.111,0,0,0,64.8,228.3a15.115,15.115,0,1,0,0,19.45,15.111,15.111,0,0,0,26.68-9.72Z" data-name="&lt;Group&gt;"/><polygon fill="#fedb41" points="246.98 153.11 246.98 187.96 246.24 187.96 16.68 187.96 16.53 187.96 16.53 153.11 16.68 153.11 246.24 153.11 246.98 153.11" data-name="&lt;Group&gt;"/><path fill="#36d4ff" d="M246.98,115.76v37.35H16.53V137.97a22.205,22.205,0,0,1,22.21-22.21H246.98Z" data-name="&lt;Group&gt;"/><path fill="#00efd1" d="M76.37,222.91A15.115,15.115,0,1,1,64.8,247.75a15.1,15.1,0,0,0,0-19.45A15.068,15.068,0,0,1,76.37,222.91Z" data-name="&lt;Group&gt;"/><path fill="#00efd1" d="M64.8,228.3a15.1,15.1,0,0,1,0,19.45,15.128,15.128,0,0,1,0-19.45Z" data-name="&lt;Group&gt;"/><path fill="#00efd1" d="M53.24,222.91A15.047,15.047,0,0,1,64.8,228.3a15.128,15.128,0,0,0,0,19.45,15.113,15.113,0,1,1-11.56-24.84Z" data-name="&lt;Group&gt;"/></g><g data-name="&lt;Group&gt;"><g data-name="&lt;Group&gt;"><path fill="#f4b844" d="M383.58,455.17H154.89a8,8,0,1,1,0-16H383.58a8,8,0,0,1,0,16Z" data-name="&lt;Path&gt;"/></g><g data-name="&lt;Group&gt;"><path fill="#f4b844" d="M246.98,295.5a8,8,0,0,1-8-8v-181a8,8,0,0,1,16,0v181A8,8,0,0,1,246.98,295.5Z" data-name="&lt;Path&gt;"/></g></g></g></g></g></svg>