<svg xmlns="http://www.w3.org/2000/svg" viewBox="0 0 64 64"><path fill="#4D4D4D" d="M49 2H15c-1.654 0-3 1.346-3 3v54c0 1.654 1.346 3 3 3h34c1.654 0 3-1.346 3-3V5c0-1.654-1.346-3-3-3z"/><path fill="#3E3E3E" d="M26 57a32.878 32.878 0 0 1-14-3.115V59c0 1.654 1.346 3 3 3h34c1.654 0 3-1.346 3-3V44.31C45.96 52.031 36.563 57 26 57z"/><path fill="#FFF" d="M14 7h36v40H14z"/><path fill="#3EBBDD" d="M44 24c-2.76 0-4 6.095-4 7.667C40 34.057 41.794 36 44 36s4-1.943 4-4.333C48 30.095 46.76 24 44 24z"/><path fill="#E6E6E6" d="M18 22h2v2h-2zM22 22h2v2h-2zM26 22h2v2h-2z"/><path fill="#3EBBDD" d="M22.475 11h1.05A2.475 2.475 0 0 1 26 13.475V14h.525A2.475 2.475 0 0 1 29 16.475v.05A2.475 2.475 0 0 1 26.525 19h-7.05A2.475 2.475 0 0 1 17 16.525v-.05A2.475 2.475 0 0 1 19.475 14H20v-.525A2.475 2.475 0 0 1 22.475 11z"/><path fill="#FBB03B" d="M24.999 35a1 1 0 01-.831-1.555L25.132 32H24a1 1 0 01-.832-1.554l2-3a1 1 0 011.664 1.11L25.868 30H27a1 1 0 01.832 1.554l-2 3a.997.997 0 01-.833.446zM17.999 35a1 1 0 01-.831-1.555L18.132 32H17a1 1 0 01-.832-1.554l2-3a1 1 0 011.664 1.11L18.868 30H20a1 1 0 01.832 1.554l-2 3a.997.997 0 01-.833.446z"/><path fill="#FFF" d="M32 50c-2.206 0-4 1.794-4 4s1.794 4 4 4 4-1.794 4-4-1.794-4-4-4z"/><circle cx="32" cy="54" r="2" fill="#4D4D4D"/><path fill="#FBB03B" d="M34 27c-2.206 0-4 1.794-4 4s1.794 4 4 4 4-1.794 4-4-1.794-4-4-4z"/><path fill="#E6E6E6" d="M44 12h4v2h-4zM40 12h1.999v2H40zM29 38h2v2h-2zM33 38h2v2h-2zM29 42h2v2h-2zM33 42h2v2h-2zM34 12h4v2h-4zM34 16h14v2H34zM34 20h14v2H34zM37 38h11v2H37zM37 42h11v2H37zM16 38h11v2H16zM16 42h11v2H16z"/></svg>