<svg xmlns="http://www.w3.org/2000/svg" viewBox="0 0 48 48"><circle cx="12" cy="6" r="2" fill="#42a5f5"/><circle cx="18" cy="6" r="2" fill="#42a5f5"/><circle cx="12" cy="20" r="2" fill="#42a5f5"/><circle cx="18" cy="20" r="2" fill="#42a5f5"/><circle cx="12" cy="34" r="2" fill="#42a5f5"/><circle cx="18" cy="34" r="2" fill="#42a5f5"/><path fill="#424242" d="M39 0H9A3 3 0 0 0 6 3V9a3 3 0 0 0 3 3H39a3 3 0 0 0 3-3V3A3 3 0 0 0 39 0zm1 9a1 1 0 0 1-1 1H9A1 1 0 0 1 8 9V3A1 1 0 0 1 9 2H39a1 1 0 0 1 1 1zM39 14H9a3 3 0 0 0-3 3v6a3 3 0 0 0 3 3H39a3 3 0 0 0 3-3V17A3 3 0 0 0 39 14zm1 9a1 1 0 0 1-1 1H9a1 1 0 0 1-1-1V17a1 1 0 0 1 1-1H39a1 1 0 0 1 1 1zM1 45a1 1 0 0 0 0 2H16V45zM39 28H9a3 3 0 0 0-3 3v6a3 3 0 0 0 3 3H23v2h2V40H39a3 3 0 0 0 3-3V31A3 3 0 0 0 39 28zm1 9a1 1 0 0 1-1 1H9a1 1 0 0 1-1-1V31a1 1 0 0 1 1-1H39a1 1 0 0 1 1 1zm7 8H32v2H47A1 1 0 0 0 47 45z"/><rect width="12" height="4" x="18" y="44" fill="#42a5f5" rx="1"/><rect width="30" height="2" x="9" y="12" fill="#42a5f5"/><rect width="30" height="2" x="9" y="26" fill="#42a5f5"/><path fill="#424242" d="M36 7V5a1 1 0 0 1 2 0V7A1 1 0 0 1 36 7zM32 7V5a1 1 0 0 1 2 0V7A1 1 0 0 1 32 7zM28 7V5a1 1 0 0 1 2 0V7A1 1 0 0 1 28 7zM36 21V19a1 1 0 0 1 2 0v2A1 1 0 0 1 36 21zM32 21V19a1 1 0 0 1 2 0v2A1 1 0 0 1 32 21zM28 21V19a1 1 0 0 1 2 0v2A1 1 0 0 1 28 21zM36 35V33a1 1 0 0 1 2 0v2A1 1 0 0 1 36 35zM32 35V33a1 1 0 0 1 2 0v2A1 1 0 0 1 32 35zM28 35V33a1 1 0 0 1 2 0v2A1 1 0 0 1 28 35z"/></svg>