<svg xmlns="http://www.w3.org/2000/svg" xmlns:xlink="http://www.w3.org/1999/xlink" fill-rule="evenodd" stroke-linejoin="round" stroke-miterlimit="1.414" clip-rule="evenodd" viewBox="0 0 523 375"><rect width="522.165" height="373.876" x=".587" y=".655" fill="none"/><path fill="url(#_Linear1)" d="M405.837,242.099c0,-4.798 -3.896,-8.693 -8.694,-8.693l-247.62,0c-4.798,0 -8.694,3.895 -8.694,8.693l0,71.692c0,4.798 3.896,8.693 8.694,8.693l247.62,0c4.798,0 8.694,-3.895 8.694,-8.693l0,-71.692Z"/><path fill="url(#_Linear2)" d="M390.651,322.484l0,-73.295l-242.025,0c-3.358,0 -6.085,-2.726 -6.085,-6.085l0,-3.613c0,-3.358 2.726,-6.085 6.085,-6.085l248.517,0c4.424,0 8.079,3.311 8.624,7.587l0.013,0.108l0.012,0.11l0.01,0.11l0.009,0.11l0.008,0.11l0.006,0.111l0.005,0.111l0.004,0.112l0.002,0.112l0.001,0.112l0,71.692c0,4.798 -3.896,8.693 -8.694,8.693l-6.492,0Z"/><circle cx="175.222" cy="281.327" r="7.335" fill="#53ba2f"/><clipPath id="a"><ellipse cx="176.146" cy="278.977" rx="1.766" ry="1.752"/></clipPath><g clip-path="url(#a)"><use width="3.532" height="3.504" x="197.507" y="316.426" transform="scale(.8829 .87611)" xlink:href="#_Image4"/></g><path fill="#fff" d="M367.478,279.724c0,-1.919 -1.558,-3.477 -3.478,-3.477l-156.559,0c-1.919,0 -3.477,1.558 -3.477,3.477l0,2.065c0,1.919 1.558,3.477 3.477,3.477l156.559,0c1.92,0 3.478,-1.558 3.478,-3.477l0,-2.065Z"/><path fill="url(#_Radial5)" d="M149.523,233.406l7.09,0l0,74.408l241.997,0c3.359,0.001 6.086,2.727 6.086,6.086l0,3.64c0,0.205 -0.011,0.408 -0.031,0.608c-1.505,2.592 -4.311,4.336 -7.522,4.336l-247.62,0c-4.798,0 -8.694,-3.895 -8.694,-8.693l0,-71.692c0,-4.798 3.895,-8.693 8.694,-8.693Z"/><path fill="url(#_Linear6)" d="M405.837,152.657c0,-4.798 -3.896,-8.693 -8.694,-8.693l-247.62,0c-4.798,0 -8.694,3.895 -8.694,8.693l0,71.692c0,4.798 3.896,8.693 8.694,8.693l247.62,0c4.798,0 8.694,-3.895 8.694,-8.693l0,-71.692Z"/><path fill="url(#_Linear7)" d="M390.651,233.042l0,-73.295l-242.025,0c-3.358,0 -6.085,-2.726 -6.085,-6.085l0,-3.613c0,-3.359 2.726,-6.085 6.085,-6.085l248.517,0c4.424,0 8.079,3.31 8.624,7.586l0.013,0.109l0.012,0.11l0.01,0.109l0.009,0.111l0.008,0.11l0.006,0.111l0.005,0.111l0.004,0.112l0.002,0.112l0.001,0.112l0,71.692c0,4.798 -3.896,8.693 -8.694,8.693l-6.492,0Z"/><circle cx="175.222" cy="191.885" r="7.335" fill="#53ba2f"/><clipPath id="b"><ellipse cx="176.146" cy="189.535" rx="1.766" ry="1.752"/></clipPath><g clip-path="url(#b)"><use width="3.532" height="3.504" x="197.507" y="214.336" transform="scale(.8829 .87611)" xlink:href="#_Image4"/></g><path fill="#fff" d="M367.478,190.282c0,-1.919 -1.558,-3.477 -3.478,-3.477l-156.559,0c-1.919,0 -3.477,1.558 -3.477,3.477l0,2.065c0,1.919 1.558,3.477 3.477,3.477l156.559,0c1.92,0 3.478,-1.558 3.478,-3.477l0,-2.065Z"/><path fill="url(#_Radial9)" d="M149.523,143.964l7.09,0l0,74.408l241.997,0c3.359,0.001 6.086,2.727 6.086,6.085l0,3.641c0,0.205 -0.011,0.408 -0.031,0.608c-1.505,2.592 -4.311,4.336 -7.522,4.336l-247.62,0c-4.798,0 -8.694,-3.895 -8.694,-8.693l0,-71.692c0,-4.798 3.895,-8.693 8.694,-8.693Z"/><path fill="url(#_Linear10)" d="M405.837,64.174c0,-4.798 -3.896,-8.693 -8.694,-8.693l-247.62,0c-4.798,0 -8.694,3.895 -8.694,8.693l0,71.692c0,4.798 3.896,8.693 8.694,8.693l247.62,0c4.798,0 8.694,-3.895 8.694,-8.693l0,-71.692Z"/><path fill="url(#_Linear11)" d="M390.651,144.559l0,-73.294l-242.025,0c-3.358,0 -6.085,-2.727 -6.085,-6.086l0,-3.613c0,-3.358 2.726,-6.085 6.085,-6.085l248.517,0c4.424,0 8.079,3.311 8.624,7.587l0.013,0.109l0.012,0.109l0.01,0.11l0.009,0.11l0.008,0.11l0.006,0.111l0.005,0.111l0.004,0.112l0.002,0.112l0.001,0.112l0,71.692c0,4.798 -3.896,8.693 -8.694,8.693l-6.492,0Z"/><circle cx="175.222" cy="103.402" r="7.335" fill="#53ba2f"/><clipPath id="c"><ellipse cx="176.146" cy="101.052" rx="1.766" ry="1.752"/></clipPath><g clip-path="url(#c)"><use width="3.532" height="3.504" x="197.507" y="113.342" transform="scale(.8829 .87611)" xlink:href="#_Image4"/></g><path fill="#fff" d="M367.478,101.8c0,-1.92 -1.558,-3.478 -3.478,-3.478l-156.559,0c-1.919,0 -3.477,1.558 -3.477,3.478l0,2.064c0,1.919 1.558,3.477 3.477,3.477l156.559,0c1.92,0 3.478,-1.558 3.478,-3.477l0,-2.064Z"/><path fill="url(#_Radial13)" d="M149.523,55.481l7.09,0l0,74.408l241.997,0c3.359,0.001 6.086,2.727 6.086,6.086l0,3.64c0,0.205 -0.011,0.408 -0.031,0.609c-1.505,2.591 -4.311,4.335 -7.522,4.335l-247.62,0c-4.798,0 -8.694,-3.895 -8.694,-8.693l0,-71.692c0,-4.797 3.895,-8.693 8.694,-8.693Z"/><g><path fill="#0084ff" d="M140.289,287.693c-0.21,0.244 -0.487,0.405 -0.762,0.445c-0.176,0.025 -0.343,0 -0.484,-0.07c-0.08,-0.04 -0.152,-0.094 -0.212,-0.162l-22.1,-24.766c-0.19,-0.212 -0.227,-0.538 -0.103,-0.868c0.124,-0.329 0.396,-0.618 0.721,-0.768l49.719,-23.02l-55.454,17.843c-0.348,0.113 -0.68,0.046 -0.874,-0.176l-17.695,-20.477c-0.203,-0.235 -0.183,-0.608 0.049,-0.946c0.234,-0.336 0.632,-0.569 1.012,-0.593l95.479,-5.635c0.32,-0.023 0.606,0.146 0.731,0.427c0.124,0.279 0.064,0.62 -0.155,0.874l-49.872,57.892Zm-26.104,-19.878l5.942,6.797c0.181,0.207 0.231,0.517 0.133,0.842c-0.094,0.324 -0.326,0.626 -0.625,0.814l-18.396,11.663c-0.356,0.226 -0.736,0.267 -1.01,0.127c-0.077,-0.039 -0.144,-0.092 -0.2,-0.155c-0.263,-0.308 -0.23,-0.831 0.079,-1.287l12.461,-18.409c0.2,-0.296 0.507,-0.517 0.827,-0.595c0.318,-0.079 0.615,-0.005 0.789,0.203Z"/><path fill="#fff" fill-rule="nonzero" d="M190.167,216.646c14.349,0.897 14.09,14.737 9.053,20.811l-50.025,58.069c-3.727,4.151 -5.654,4.22 -8.901,4.451c-3.437,0.244 -6.96,-0.978 -9.489,-3.33c-0.389,-0.361 -0.424,-0.41 -0.75,-0.763l-6.941,-7.778c0,0 -15.773,9.996 -15.773,9.996c-5.605,3.312 -13.853,1.961 -17.548,-4.181c-2.524,-4.196 -2.36,-9.583 0.437,-13.87l11.196,-16.54l-17.461,-20.205c0,0 -2.15,-3.07 -2.652,-5.436c-1.497,-7.065 4.042,-14.811 11.647,-15.541c0.114,-0.011 0.228,-0.018 0.341,-0.027l95.633,-5.644c0.878,-0.045 0.941,-0.018 1.233,-0.012Zm-0.552,11.852c-31.857,1.732 -63.737,3.166 -95.545,5.64c-0.748,0.084 -1.457,0.952 -1.044,1.513c5.73,6.993 11.646,13.836 17.733,20.52c0.226,0.227 0.567,0.245 0.855,0.156l55.454,-17.843c-16.594,7.682 -33.485,14.753 -49.779,23.05c-0.131,0.071 -0.249,0.158 -0.352,0.262c-0.323,0.328 -0.551,0.909 -0.223,1.323c7.224,8.408 14.628,16.662 22.14,24.812c0.381,0.373 0.992,0.221 1.395,-0.193c17.018,-19.005 34.303,-37.837 49.952,-57.985c0.334,-0.461 0.115,-1.267 -0.586,-1.255Zm-76.015,39.084c-0.41,0.023 -0.775,0.271 -1.012,0.597c-4.239,6.113 -8.432,12.258 -12.508,18.48c-0.453,0.739 0.358,1.741 1.126,1.293c6.203,-3.841 12.453,-7.616 18.485,-11.72c0.09,-0.065 0.174,-0.137 0.249,-0.219c0.317,-0.346 0.528,-0.932 0.22,-1.361c-1.871,-2.401 -3.912,-4.669 -6.009,-6.875c-0.149,-0.143 -0.345,-0.2 -0.551,-0.195Z"/><path fill="#70d1ff" d="M455.851,123.957c-0.008,-0.116 -11.864,80.883 -93.02,131.407c-195.248,121.554 -308.737,103.177 -334.254,62.976c5.348,17.883 28.439,51.943 125.005,40.837c87.297,-10.04 198.062,-71.049 250.684,-122.299c29.906,-29.127 53.615,-84.364 51.585,-112.921Z"/><path fill="#cce6ff" d="M171.683,327.409c0,0 -18.621,5.561 -63.737,4.471c-62.018,-1.498 -99.816,-46.658 -89.639,-72.269c-7.132,11.116 -6.738,26.721 5.775,45.445c12.528,18.748 42.833,35.394 86.1,35.765c18.234,0.157 40.897,-1.77 61.501,-13.412Z"/><path fill="#0084ff" d="M224.59 226.294c1.166.407 1.781 1.682 1.374 2.847-.408 1.166-1.683 1.781-2.849 1.374-1.166-.407-1.781-1.682-1.374-2.848.407-1.165 1.683-1.78 2.849-1.373zm42.152-17.25c3.206 1.119 4.898 4.625 3.778 7.83-1.12 3.205-4.627 4.896-7.834 3.776-3.206-1.119-4.898-4.625-3.778-7.83 1.12-3.205 4.627-4.896 7.834-3.776zm18.776-14.756c4.081 1.425 6.234 5.887 4.809 9.966-1.425 4.079-5.889 6.231-9.971 4.807-4.081-1.425-6.234-5.887-4.808-9.966 1.425-4.079 5.889-6.232 9.97-4.807zm-59.998 3.918c1.458.509 2.227 2.102 1.718 3.559-.509 1.457-2.103 2.226-3.561 1.717-1.458-.509-2.227-2.102-1.718-3.559.51-1.457 2.104-2.226 3.561-1.717zM246.721 222.211c-3.972 1.706-8.575-.129-10.282-4.099-1.706-3.97.13-8.571 4.102-10.277 3.971-1.706 8.575.129 10.281 4.099 1.707 3.97-.129 8.571-4.101 10.277zm3.868-23.558c-3.12 1.34-6.737-.102-8.078-3.221-1.341-3.119.102-6.734 3.222-8.075 3.121-1.34 6.738.102 8.079 3.221 1.341 3.119-.102 6.735-3.223 8.075zm37.716-19.848c-1.419.609-3.063-.046-3.672-1.464-.61-1.418.046-3.061 1.465-3.671 1.418-.609 3.062.047 3.672 1.465.609 1.417-.047 3.061-1.465 3.67zm-18.3-21.336c-1.135.487-2.45-.037-2.938-1.171-.487-1.135.037-2.449 1.172-2.937 1.135-.487 2.45.037 2.938 1.172.487 1.134-.037 2.449-1.172 2.936z"/></g><path fill="#0bbc00" fill-rule="nonzero" d="M434.99,128.5l15.772,-15.693c35.171,-34.996 41.396,-71.085 42.459,-84.653c0.118,-1.466 -0.422,-2.908 -1.463,-3.96c-1.046,-1.052 -2.496,-1.593 -3.975,-1.493c-13.718,0.937 -50.302,6.836 -85.512,41.871l-15.768,15.69l-4.903,-0.973c-9.453,-1.869 -19.186,1.046 -25.962,7.789l-18.818,18.724c-1.112,1.106 -1.523,2.754 -1.056,4.26c0.467,1.52 1.736,2.659 3.288,2.976l15.853,3.23c4.449,0.91 8.544,3.098 11.766,6.304l7.023,6.988l11.745,11.687l7.019,6.983c3.222,3.206 5.429,7.281 6.34,11.72l3.244,15.764c0.32,1.546 1.464,2.808 2.99,3.271c1.523,0.46 3.172,0.058 4.284,-1.048l18.818,-18.725c6.772,-6.738 9.701,-16.424 7.828,-25.832l-0.972,-4.88Z"/><path fill="#fff" fill-rule="nonzero" d="M488.349,12.13c8.391,0.18 15.888,7.777 15.426,16.455c-0.604,11.363 -3.597,22.781 -7.606,33.677c-8.051,21.877 -21.579,41.681 -37.953,58.025l-11.768,11.709c0.099,0.553 0.098,0.553 0.188,1.131c1.767,12.011 -2.242,24.597 -10.836,33.353c-6.332,6.352 -12.714,12.652 -19.071,18.978c-6.971,6.807 -20.711,4.46 -24.397,-5.414c-0.235,-0.63 -0.421,-1.277 -0.576,-1.932c-1.16,-5.412 -2.162,-10.856 -3.35,-16.261c-1.198,-5.21 -6.222,-8.947 -10.415,-13.119c-6.315,-6.283 -12.548,-12.646 -18.934,-18.836c-1.682,-1.597 -3.782,-2.718 -6.042,-3.234c-9.511,-2.085 -20.295,-2.318 -25.228,-9.217c-3.978,-5.564 -3.483,-13.846 1.409,-18.951c6.342,-6.433 12.783,-12.768 19.21,-19.116c8.969,-8.721 22.123,-12.789 34.631,-10.565c15.688,-15.609 31.899,-30.813 51.309,-40.995c16.137,-8.465 33.944,-14.226 51.976,-15.599c0.65,-0.05 0.852,-0.097 2.027,-0.089Zm-0.289,10.559c-9.491,0.195 -18.892,2.662 -28.028,5.662c-21.781,7.155 -41.471,20.068 -57.761,36.221l-15.768,15.69c-10.88,-2.16 -22.38,-1.433 -30.706,6.658c-6.367,6.287 -12.741,12.568 -19.029,18.934c-2.077,2.179 -0.928,6.443 2.211,7.169c9.874,2.107 20.414,2.501 27.541,9.399c8.742,8.62 17.438,17.272 26.088,25.959c6.665,6.816 7.313,17.541 9.449,27.406c0.696,2.968 4.892,4.386 7.206,2.201c6.398,-6.255 12.711,-12.598 19.029,-18.934c6.509,-6.631 9.477,-16.407 7.67,-25.674l-0.972,-4.88c11.562,-11.504 23.481,-22.633 32.953,-35.743c13.746,-19.026 23.419,-41.467 25.278,-64.603c0.209,-2.831 -2.287,-5.485 -5.161,-5.465Z"/><path fill="url(#_Linear14)" d="M360.175,109.875l25.718,-26.824c0,0 11.476,2.751 21.246,12.295c9.769,9.544 23.805,29.831 24.6,35.765c0.795,5.935 -22.938,22.918 -26.837,23.471"/><path fill="#008c00" d="M375.829,125.523c0,0 -18.657,-13.68 -11.182,-16.765c7.475,-3.085 45.482,30.13 43.61,38.001c-1.873,7.87 -18.529,-2.352 -32.428,-21.236Z"/><path fill="#0084ff" d="M319.021,156.773c8.025,0 14.54,6.509 14.54,14.526c0,8.017 -6.515,14.526 -14.54,14.526c-8.026,0 -14.541,-6.509 -14.541,-14.526c0,-8.017 6.515,-14.526 14.541,-14.526Zm27.31,-21.14c-1.006,-1.667 -1.576,-3.615 -1.576,-5.695c0,-6.166 5.01,-11.172 11.18,-11.172c3.792,0 7.146,1.891 9.159,4.781c1.194,-0.211 2.428,-0.318 3.687,-0.318c12.035,0 21.805,9.764 21.805,21.79c0,12.026 -9.77,21.789 -21.805,21.789c-3.913,0 -7.587,-1.033 -10.762,-2.846c-0.751,4.173 -4.405,7.337 -8.792,7.337c-4.936,0 -8.944,-4.006 -8.944,-8.94c0,-0.783 0.101,-1.543 0.302,-2.266c-6.98,-0.131 -12.607,-5.835 -12.607,-12.843c0,-7.091 5.763,-12.849 12.861,-12.849c1.965,0 3.827,0.442 5.492,1.232Z"/><path fill="url(#_Linear15)" d="M397.929,90.065c0,0 24.16,10.977 32.681,34.373c49.538,-33.686 56.635,-82.318 60.518,-92.374"/><path fill="url(#_Linear16)" d="M383.657,84.169l-24.6,26.824c0,0 -21.767,1.138 -19.01,-2.235c16.957,-20.741 25.363,-31.796 43.61,-24.589Z"/><path fill="url(#_Linear17)" d="M427.266,116.582c0,0 -10.364,-24.421 -33.546,-33.531c34.953,-48.642 83.771,-54.495 93.928,-58.119"/><path fill="#009f00" d="M410.493,97.581c0,0 23.665,-6.243 22.364,5.588c-1.596,14.518 -47.942,49.088 -49.2,48.06c-5.12,-4.179 -9.945,-5.908 -10.064,-8.941c-0.119,-3.033 9.272,-11.174 17.891,-21.236c3.116,-3.637 19.009,-23.471 19.009,-23.471Z"/><path fill="#cce6ff" fill-opacity=".529" d="M423.911,99.816c0,0 -42.06,42.548 -45.845,43.59c-3.786,1.042 31.309,-41.354 31.309,-41.354c0,0 11.421,-5.21 14.536,-2.236Z"/><path fill="url(#_Linear18)" d="M429.502,131.111l-24.6,25.707l1.118,17.883c0,0 24.117,-18.349 26.837,-29.06c2.72,-10.711 -3.355,-14.53 -3.355,-14.53Z"/><defs><linearGradient id="_Linear1" x2="1" gradientTransform="rotate(97.071 28.502 276.92) scale(105.4127)" gradientUnits="userSpaceOnUse"><stop offset="0" stop-color="#cce6ff"/><stop offset=".47" stop-color="#9cd1ff"/><stop offset="1" stop-color="#1d98ff"/></linearGradient><linearGradient id="_Linear2" x2="1" gradientTransform="rotate(-73.234 329.995 -43.927) scale(135.5771)" gradientUnits="userSpaceOnUse"><stop offset="0" stop-color="#cce6ff" stop-opacity=".62"/><stop offset=".18" stop-color="#e2f1ff" stop-opacity=".62"/><stop offset=".39" stop-color="#f6fbff" stop-opacity=".62"/><stop offset="1" stop-color="#fff" stop-opacity=".62"/></linearGradient><linearGradient id="_Linear6" x2="1" gradientTransform="rotate(97.071 67.996 232.21) scale(105.4127)" gradientUnits="userSpaceOnUse"><stop offset="0" stop-color="#cce6ff"/><stop offset=".47" stop-color="#9cd1ff"/><stop offset="1" stop-color="#1d98ff"/></linearGradient><linearGradient id="_Linear7" x2="1" gradientTransform="rotate(-73.234 269.798 -88.532) scale(135.5771)" gradientUnits="userSpaceOnUse"><stop offset="0" stop-color="#cce6ff" stop-opacity=".62"/><stop offset=".18" stop-color="#e2f1ff" stop-opacity=".62"/><stop offset=".39" stop-color="#f6fbff" stop-opacity=".62"/><stop offset="1" stop-color="#fff" stop-opacity=".62"/></linearGradient><linearGradient id="_Linear10" x2="1" gradientTransform="rotate(97.071 107.117 187.966) scale(105.4127)" gradientUnits="userSpaceOnUse"><stop offset="0" stop-color="#cce6ff"/><stop offset=".47" stop-color="#9cd1ff"/><stop offset="1" stop-color="#1d98ff"/></linearGradient><linearGradient id="_Linear11" x2="1" gradientTransform="rotate(-73.234 210.28 -132.866) scale(135.5771)" gradientUnits="userSpaceOnUse"><stop offset="0" stop-color="#cce6ff" stop-opacity=".62"/><stop offset=".18" stop-color="#e2f1ff" stop-opacity=".62"/><stop offset=".39" stop-color="#f6fbff" stop-opacity=".62"/><stop offset="1" stop-color="#fff" stop-opacity=".62"/></linearGradient><linearGradient id="_Linear14" x2="1" gradientTransform="rotate(50.894 95.614 415.702) scale(55.0453)" gradientUnits="userSpaceOnUse"><stop offset="0" stop-color="#fff"/><stop offset="1" stop-color="#fff" stop-opacity="0"/></linearGradient><linearGradient id="_Linear15" x2="1" gradientTransform="rotate(-123.987 260.178 -67.874) scale(50.6617)" gradientUnits="userSpaceOnUse"><stop offset="0" stop-color="#008e00"/><stop offset="1" stop-color="#008e00" stop-opacity="0"/></linearGradient><linearGradient id="_Linear16" x2="1" gradientTransform="rotate(50.062 86.327 411.45) scale(32.1395)" gradientUnits="userSpaceOnUse"><stop offset="0" stop-color="#fff"/><stop offset="1" stop-color="#fff" stop-opacity="0"/></linearGradient><linearGradient id="_Linear17" x2="1" gradientTransform="rotate(42.784 154.597 530.4) scale(54.9203)" gradientUnits="userSpaceOnUse"><stop offset="0" stop-color="#fff"/><stop offset="1" stop-color="#fff" stop-opacity="0"/></linearGradient><linearGradient id="_Linear18" x2="1" gradientTransform="rotate(-123.116 261.528 -36.12) scale(39.8843)" gradientUnits="userSpaceOnUse"><stop offset="0" stop-color="#008c00" stop-opacity=".329"/><stop offset="1" stop-color="#008c00" stop-opacity="0"/></linearGradient><radialGradient id="_Radial5" cx="0" cy="0" r="1" gradientTransform="translate(223.605 420.518) scale(229.685)" gradientUnits="userSpaceOnUse"><stop offset="0" stop-color="#2884fb" stop-opacity=".639"/><stop offset=".52" stop-color="#4f9afb" stop-opacity=".489"/><stop offset="1" stop-color="#d0e4fc" stop-opacity="0"/></radialGradient><radialGradient id="_Radial9" cx="0" cy="0" r="1" gradientTransform="translate(223.605 331.076) scale(229.685)" gradientUnits="userSpaceOnUse"><stop offset="0" stop-color="#2884fb" stop-opacity=".639"/><stop offset=".52" stop-color="#4f9afb" stop-opacity=".489"/><stop offset="1" stop-color="#d0e4fc" stop-opacity="0"/></radialGradient><radialGradient id="_Radial13" cx="0" cy="0" r="1" gradientTransform="translate(223.605 242.593) scale(229.685)" gradientUnits="userSpaceOnUse"><stop offset="0" stop-color="#2884fb" stop-opacity=".639"/><stop offset=".52" stop-color="#4f9afb" stop-opacity=".489"/><stop offset="1" stop-color="#d0e4fc" stop-opacity="0"/></radialGradient></defs></svg>